HIERARCHY
ROOT Hips
{
 OFFSET 0.000000 0.000000 0.000000
 CHANNELS 6 Xposition Yposition Zposition Yrotation Xrotation Zrotation
 JOINT Chest
 {
  OFFSET 0.000000 9.585900 0.002600
  CHANNELS 3 Yrotation Xrotation Zrotation
  JOINT Chest2
  {
   OFFSET 0.000000 9.601200 -0.005300
   CHANNELS 3 Yrotation Xrotation Zrotation
   JOINT Chest3
   {
    OFFSET 0.000000 9.561800 0.000000
    CHANNELS 3 Yrotation Xrotation Zrotation
    JOINT Chest4
    {
     OFFSET 0.000000 9.552100 0.000000
     CHANNELS 3 Yrotation Xrotation Zrotation
     JOINT Neck
     {
      OFFSET 0.000000 14.453000 0.000000
      CHANNELS 3 Yrotation Xrotation Zrotation
      JOINT Head
      {
       OFFSET 0.000000 8.936500 -0.011300
       CHANNELS 3 Yrotation Xrotation Zrotation
       End Site
       {
        OFFSET 0.000000 17.073600 -0.006000
       }
      }
     }
     JOINT RightCollar
     {
      OFFSET -2.921100 9.558500 0.000000
      CHANNELS 3 Yrotation Xrotation Zrotation
      JOINT RightShoulder
      {
       OFFSET -13.519700 0.000000 0.000000
       CHANNELS 3 Yrotation Xrotation Zrotation
       JOINT RightElbow
       {
        OFFSET 0.000000 -29.696600 0.000000
        CHANNELS 3 Yrotation Xrotation Zrotation
        JOINT RightWrist
        {
         OFFSET 0.000000 -24.004700 0.000000
         CHANNELS 3 Yrotation Xrotation Zrotation
         End Site
         {
          OFFSET 0.000000 -17.728500 0.000000
         }
        }
       }
      }
     }
     JOINT LeftCollar
     {
      OFFSET 2.921100 9.558500 0.000000
      CHANNELS 3 Yrotation Xrotation Zrotation
      JOINT LeftShoulder
      {
       OFFSET 13.519700 0.000000 0.000000
       CHANNELS 3 Yrotation Xrotation Zrotation
       JOINT LeftElbow
       {
        OFFSET 0.000000 -29.696600 0.000000
        CHANNELS 3 Yrotation Xrotation Zrotation
        JOINT LeftWrist
        {
         OFFSET 0.000000 -24.004700 0.000000
         CHANNELS 3 Yrotation Xrotation Zrotation
         End Site
         {
          OFFSET 0.000000 -17.728500 0.000000
         }
        }
       }
      }
     }
    }
   }
  }
 }
 JOINT RightHip
 {
  OFFSET -7.771700 -0.012900 -0.001300
  CHANNELS 3 Yrotation Xrotation Zrotation
  JOINT RightKnee
  {
   OFFSET 0.000000 -40.869800 0.001200
   CHANNELS 3 Yrotation Xrotation Zrotation
   JOINT RightAnkle
   {
    OFFSET 0.000000 -39.717900 0.002100
    CHANNELS 3 Yrotation Xrotation Zrotation
    JOINT RightToe
    {
     OFFSET 0.000000 -4.965400 11.033500
     CHANNELS 3 Yrotation Xrotation Zrotation
     End Site
     {
      OFFSET 0.000000 -1.423100 5.872300
     }
    }
   }
  }
 }
 JOINT LeftHip
 {
  OFFSET 7.771700 -0.012900 -0.001300
  CHANNELS 3 Yrotation Xrotation Zrotation
  JOINT LeftKnee
  {
   OFFSET 0.000000 -40.869800 0.001200
   CHANNELS 3 Yrotation Xrotation Zrotation
   JOINT LeftAnkle
   {
    OFFSET 0.000000 -39.717900 0.002100
    CHANNELS 3 Yrotation Xrotation Zrotation
    JOINT LeftToe
    {
     OFFSET 0.000000 -4.965400 11.033500
     CHANNELS 3 Yrotation Xrotation Zrotation
     End Site
     {
      OFFSET 0.000000 -1.423100 5.872300
     }
    }
   }
  }
 }
}
MOTION
Frames: 16
Frame Time: 0.008333
-35.473364 43.914113 36.242096 179.025358 -29.667400 -0.160644 -1.055290 15.690582 1.168295 -0.153418 1.492921 0.149893 -0.245329 2.606684 0.327158 -1.215968 13.993295 1.512169 -2.491561 14.416045 -3.398181 -1.851509 -10.523634 -3.043557 9.757255 2.833964 -2.666588 0.004189 -4.898732 -8.126487 -126.464899 -62.648917 159.286287 -7.827572 3.169484 -36.021467 -17.466613 1.107203 -4.061151 1.069130 -8.829772 5.535872 138.193856 -64.190408 -170.001502 11.219807 11.935254 16.712454 -2.669234 -63.290294 8.657940 -154.435492 71.106455 -154.043880 -13.052870 -25.629406 9.620336 0.416319 -0.998609 0.175944 4.722032 -52.816154 -7.760060 174.108913 64.570558 174.129067 -2.164447 -33.042355 3.795887 0.060280 0.407185 0.042297
-35.475369 43.910913 36.231569 179.037759 -29.605756 -0.174970 -1.061941 15.651539 1.192018 -0.149806 1.548192 0.195568 -0.250610 2.559477 0.302423 -1.221568 13.970683 1.538248 -2.500207 14.393077 -3.414547 -1.852915 -10.535107 -3.058640 9.683619 2.861644 -2.688404 -0.139922 -4.722210 -8.012679 -126.244912 -62.693708 159.097983 -7.887136 3.174245 -36.197122 -17.409134 1.095119 -4.006929 1.167706 -8.702704 5.544032 137.931180 -64.155700 -169.805361 11.187081 11.945811 16.598598 -2.712263 -63.353530 8.679567 -154.473546 71.092459 -154.080293 -13.030606 -25.620348 9.608676 0.414281 -1.009003 0.178545 4.725357 -52.875138 -7.761433 174.126418 64.558864 174.145027 -2.167887 -33.050372 3.802045 0.058424 0.401936 0.049394
-35.479482 43.909964 36.217290 179.057101 -29.575524 -0.181673 -1.078219 15.644111 1.203854 -0.149602 1.554227 0.204488 -0.251609 2.553802 0.305747 -1.225427 13.959050 1.573992 -2.505927 14.368837 -3.416431 -1.859250 -10.566727 -3.059613 9.608900 2.887600 -2.711704 -0.284335 -4.557255 -7.912207 -126.093248 -62.743451 158.958679 -7.932730 3.178128 -36.382400 -17.370421 1.080739 -3.980386 1.273131 -8.588691 5.578515 137.693292 -64.113447 -169.634257 11.169996 11.949128 16.498555 -2.736416 -63.383425 8.672395 -154.557291 71.076077 -154.156732 -13.035316 -25.624558 9.599575 0.393332 -1.017748 0.181385 4.732687 -52.899149 -7.778028 174.145104 64.548422 174.160517 -2.171345 -33.051971 3.813554 0.061420 0.389817 0.050301
-35.486650 43.907803 36.205357 179.093551 -29.534628 -0.180670 -1.112299 15.644717 1.213673 -0.151752 1.521695 0.184230 -0.251975 2.551997 0.306879 -1.226373 13.964910 1.629323 -2.508549 14.346016 -3.404755 -1.862508 -10.597533 -3.075965 9.535440 2.914594 -2.736287 -0.429561 -4.404419 -7.825128 -125.998071 -62.795976 158.861641 -7.963579 3.188609 -36.576275 -17.337501 1.067926 -3.959227 1.373532 -8.489095 5.616457 137.481810 -64.060539 -169.486935 11.163370 11.921684 16.417054 -2.740628 -63.426031 8.634243 -154.612750 71.061251 -154.202518 -13.106377 -25.583210 9.602064 0.441849 -1.063791 0.199842 4.750715 -52.936758 -7.825361 174.157388 64.540053 174.169619 -2.193488 -33.063779 3.833490 0.073696 0.395601 0.053744
-35.492811 43.901371 36.201453 179.136224 -29.444585 -0.191223 -1.146925 15.640128 1.264223 -0.154367 1.475231 0.157245 -0.253246 2.545359 0.311773 -1.240751 13.946699 1.657825 -2.513300 14.330873 -3.408816 -1.864778 -10.623964 -3.080492 9.467088 2.942255 -2.761139 -0.575514 -4.263797 -7.750311 -125.945772 -62.850524 158.798427 -7.983558 3.210235 -36.781581 -17.304751 1.057674 -3.944278 1.467363 -8.405524 5.660205 137.306274 -63.946184 -169.389689 11.160796 11.894495 16.382131 -2.773293 -63.518772 8.622286 -154.652789 71.049382 -154.235962 -13.151325 -25.596533 9.619224 0.455332 -1.053345 0.193966 4.755309 -53.030101 -7.864055 174.167123 64.533032 174.174076 -2.203519 -33.075815 3.851004 0.072434 0.408490 0.052061
-35.498365 43.896957 36.194493 179.153326 -29.381615 -0.194061 -1.162408 15.598581 1.274660 -0.154634 1.491293 0.176268 -0.257727 2.565365 0.342742 -1.261950 13.904032 1.654414 -2.517109 14.318030 -3.426807 -1.874793 -10.638185 -3.024801 9.438170 2.953231 -2.805574 -0.755251 -4.116334 -7.662923 -125.922229 -62.907461 158.757450 -7.998490 3.243489 -36.998525 -17.273191 1.046377 -3.933754 1.554479 -8.332178 5.709231 137.137580 -63.837690 -169.292064 11.209874 11.993683 16.352091 -2.814309 -63.585895 8.627987 -154.714183 71.037037 -154.305962 -13.129902 -25.598874 9.615360 0.477111 -1.044780 0.196722 4.760522 -53.092432 -7.883836 174.184030 64.524796 174.180858 -2.208340 -33.085261 3.863242 0.071279 0.411466 0.051598
-35.502488 43.893999 36.185631 179.164552 -29.338000 -0.203612 -1.171015 15.606750 1.313511 -0.155277 1.480525 0.173050 -0.258590 2.533073 0.321199 -1.271220 13.906780 1.690119 -2.519966 14.307407 -3.458468 -1.884058 -10.621188 -2.968075 9.409684 2.967691 -2.831674 -0.928025 -3.979822 -7.585519 -125.914253 -62.964534 158.722680 -8.012617 3.285771 -37.222898 -17.251577 1.041257 -3.914104 1.636905 -8.267181 5.760791 136.938702 -63.780838 -169.156373 11.251189 11.983453 16.327968 -2.859199 -63.631761 8.651635 -154.746197 71.022610 -154.342722 -13.114108 -25.596656 9.615343 0.482632 -1.053915 0.194792 4.779456 -53.131693 -7.906140 174.181564 64.515951 174.186349 -2.210464 -33.096135 3.871779 0.071722 0.411808 0.050335
-35.507322 43.889138 36.180978 179.186081 -29.271859 -0.215093 -1.191409 15.588512 1.348771 -0.154950 1.469010 0.168158 -0.261625 2.527118 0.325639 -1.278116 13.879097 1.671449 -2.517775 14.319931 -3.414112 -1.883929 -10.603098 -2.973423 9.351745 2.997197 -2.801450 -1.062429 -3.866272 -7.543179 -125.906613 -63.018090 158.678108 -8.032031 3.332673 -37.449854 -17.242688 1.052736 -3.872915 1.678476 -8.246515 5.760415 136.759041 -63.833127 -169.040099 11.277926 11.900938 16.342195 -2.899521 -63.699775 8.666475 -154.749198 71.010008 -154.346271 -13.110457 -25.603176 9.611335 0.485823 -1.048799 0.201020 4.817923 -53.192804 -7.958273 174.148720 64.510918 174.179255 -2.216904 -33.117598 3.872184 0.074136 0.427620 0.049768
-35.512178 43.884216 36.177456 179.200950 -29.204712 -0.223524 -1.207719 15.558049 1.376854 -0.154916 1.467385 0.172289 -0.264170 2.522439 0.330310 -1.291448 13.865144 1.696840 -2.519766 14.353276 -3.375910 -1.875939 -10.623914 -3.035393 9.252893 3.041097 -2.798688 -1.136954 -3.786038 -7.535414 -125.880820 -63.066551 158.610981 -8.063741 3.378957 -37.677168 -17.231543 1.027921 -3.902496 1.758253 -8.185346 5.868014 136.500563 -63.741684 -168.880728 11.311119 11.868375 16.383909 -2.936226 -63.769666 8.683125 -154.735942 70.998421 -154.336742 -13.098564 -25.604487 9.609457 0.481613 -1.050022 0.201372 4.818127 -53.261466 -7.972307 174.160932 64.504907 174.184900 -2.216327 -33.129661 3.880108 0.073050 0.434531 0.048975
-35.518363 43.880216 36.173423 179.208406 -29.147730 -0.220020 -1.221953 15.536968 1.393889 -0.154944 1.463572 0.176363 -0.267440 2.516484 0.334514 -1.308510 13.847419 1.721160 -2.518810 14.389703 -3.368310 -1.866529 -10.661214 -3.092964 9.190368 3.073633 -2.813797 -1.230354 -3.697511 -7.516362 -125.813930 -63.109362 158.506152 -8.109829 3.422382 -37.901890 -17.213719 1.010820 -3.934479 1.814922 -8.141053 5.974456 136.292116 -63.645161 -168.749051 11.351557 11.854119 16.426462 -2.960585 -63.831324 8.691681 -154.728486 70.989227 -154.337707 -13.107094 -25.593984 9.611354 0.484599 -1.058117 0.202937 4.858256 -53.315982 -8.015376 174.176137 64.500250 174.201524 -2.209080 -33.135123 3.893689 0.068147 0.434117 0.046600
-35.521710 43.876323 36.170495 179.219368 -29.089992 -0.234333 -1.232496 15.497305 1.415365 -0.169911 1.510362 0.215950 -0.260033 2.479952 0.314793 -1.325158 13.831758 1.743328 -2.519648 14.423997 -3.374334 -1.862280 -10.571649 -3.059285 9.146072 3.093322 -2.834200 -1.332221 -3.614349 -7.497973 -125.689473 -63.147297 158.350023 -8.169609 3.460253 -38.121557 -17.201420 1.002429 -3.942618 1.848014 -8.132058 6.030080 136.163003 -63.590924 -168.670248 11.387779 11.833248 16.453883 -3.012534 -63.888658 8.731836 -154.706965 70.983317 -154.323285 -13.091849 -25.591074 9.602758 0.484904 -1.046483 0.210268 4.888182 -53.374707 -8.047045 174.157811 64.492742 174.201994 -2.205469 -33.137269 3.896781 0.065378 0.432411 0.045469
-35.524529 43.872622 36.168442 179.225964 -29.032204 -0.248145 -1.239789 15.457045 1.437363 -0.178353 1.523462 0.228269 -0.261416 2.475852 0.319178 -1.342643 13.816628 1.764491 -2.516366 14.469204 -3.377526 -1.855151 -10.503656 -3.051688 9.111439 3.112281 -2.851656 -1.426451 -3.545568 -7.487537 -125.496290 -63.179112 158.132578 -8.242225 3.489276 -38.336876 -17.189578 0.991771 -3.949632 1.872895 -8.135729 6.035897 136.138177 -63.586954 -168.689788 11.413248 11.805215 16.459655 -3.057876 -63.944282 8.770119 -154.660493 70.977654 -154.282449 -13.067730 -25.592807 9.595596 0.480284 -1.036397 0.211521 4.894617 -53.435138 -8.052125 174.157799 64.486479 174.204213 -2.206640 -33.139747 3.903861 0.064198 0.432186 0.044388
-35.525834 43.869311 36.166792 179.220573 -28.976778 -0.262964 -1.240569 15.435325 1.474369 -0.175073 1.505137 0.219460 -0.286086 2.506291 0.354185 -1.376840 13.794230 1.800024 -2.496480 14.510210 -3.422660 -1.845200 -10.448571 -3.056801 9.132578 3.115948 -2.931787 -1.532319 -3.477957 -7.465965 -125.235708 -63.200585 157.851958 -8.327902 3.507986 -38.547517 -17.160617 0.962945 -3.999926 1.892698 -8.140185 6.121664 136.042071 -63.520861 -168.599997 11.424410 11.781890 16.452540 -3.109935 -63.995192 8.825520 -154.594889 70.969003 -154.224815 -13.007496 -25.645334 9.591501 0.441871 -0.981268 0.195876 4.899921 -53.490637 -8.043899 174.162931 64.481664 174.209890 -2.191828 -33.132718 3.910772 0.049605 0.420339 0.036396
-35.528144 43.868202 36.161970 179.229074 -28.946598 -0.275375 -1.259298 15.437045 1.501405 -0.169409 1.488101 0.209920 -0.307407 2.523515 0.373606 -1.399523 13.779637 1.824066 -2.482146 14.566187 -3.438718 -1.833783 -10.386718 -3.060974 9.107375 3.133900 -2.954281 -1.577138 -3.437989 -7.483526 -124.914301 -63.211751 157.509660 -8.428041 3.514278 -38.751889 -17.146100 0.941188 -4.023137 1.898844 -8.145388 6.203918 135.930261 -63.445650 -168.454454 11.378379 11.779558 16.386669 -3.148042 -64.021744 8.856784 -154.584474 70.966050 -154.218688 -12.995172 -25.641922 9.573813 0.439287 -0.979069 0.207001 4.893197 -53.520825 -8.041392 174.175341 64.477138 174.219684 -2.189782 -33.130421 3.917669 0.047314 0.414657 0.033971
-35.529875 43.866545 36.158708 179.239029 -28.908413 -0.288669 -1.288350 15.431028 1.523637 -0.171442 1.486012 0.212009 -0.296716 2.507010 0.363883 -1.408242 13.774420 1.833108 -2.483735 14.638582 -3.413907 -1.821267 -10.319265 -3.062630 9.056647 3.151216 -2.933861 -1.601119 -3.406799 -7.512016 -124.531815 -63.213881 157.108325 -8.541656 3.510636 -38.947629 -17.158269 0.948525 -4.017775 1.901120 -8.166089 6.264992 135.931832 -63.426984 -168.450491 11.346141 11.752892 16.321967 -3.192482 -64.054535 8.895964 -154.575999 70.963654 -154.215794 -12.995903 -25.651520 9.572711 0.437391 -0.969518 0.207437 4.886137 -53.560430 -8.041447 174.175380 64.472922 174.222125 -2.194418 -33.128811 3.919908 0.052250 0.412577 0.033981
-35.531080 43.863300 36.158627 179.253023 -28.850153 -0.303606 -1.318553 15.403925 1.543309 -0.173310 1.484142 0.214027 -0.287744 2.491146 0.356642 -1.416876 13.769321 1.841408 -2.487451 14.714809 -3.387802 -1.808018 -10.247371 -3.062487 9.011762 3.159956 -2.920425 -1.602189 -3.385512 -7.542412 -124.096445 -63.212253 156.642929 -8.666062 3.500856 -39.137578 -17.176758 0.960732 -4.015622 1.901111 -8.196973 6.329990 135.960602 -63.414185 -168.474355 11.327780 11.729360 16.282164 -3.236835 -64.110652 8.932828 -154.575851 70.960449 -154.218700 -12.996545 -25.664028 9.574621 0.413440 -0.957157 0.202072 4.897548 -53.624355 -8.052019 174.190361 64.467496 174.242824 -2.193905 -33.121572 3.923607 0.053865 0.408967 0.038667
